<svg width="512.001" height="512.001" xmlns="http://www.w3.org/2000/svg">

 <g>
  <title>background</title>
  <rect fill="none" id="canvas_background" height="402" width="582" y="-1" x="-1"/>
 </g>
 <g>
  <title>Layer 1</title>
  <g stroke="null" id="svg_10">
   <g stroke="null" id="svg_1">
    <path stroke="null" id="svg_2" fill="#ADBAC7" d="m409.773403,385.31271l-289.551439,-275.762658c-4.968633,-4.732617 -13.025742,-4.732617 -17.994375,0c-4.969248,4.732031 -4.969248,12.404881 0,17.137498l289.551439,275.763243c2.484316,2.366601 5.741367,3.549609 8.997803,3.549609c3.256435,0 6.513486,-1.183008 8.997187,-3.549023c4.968017,-4.733202 4.968017,-12.406053 -0.000615,-17.13867z"/>
   </g>
   <g stroke="null" id="svg_3">
    <path stroke="null" id="svg_4" fill="#ADBAC7" d="m374.452798,356.693183l-236.905219,0c-7.497861,0 -13.59791,-5.80957 -13.59791,-12.950389l0,-137.881622c0,-7.141405 6.100664,-12.950389 13.59791,-12.950389l39.483896,0c7.027207,0 12.724277,-5.425781 12.724277,-12.118358s-5.69707,-12.118358 -12.724277,-12.118358l-39.483896,0c-21.530126,-0.000586 -39.047079,16.681638 -39.047079,37.187104l0,137.881622c0,20.50488 17.516953,37.18769 39.047079,37.18769l236.905219,0c7.027822,0 12.724277,-5.425195 12.724277,-12.118358s-5.696455,-12.118944 -12.724277,-12.118944z"/>
   </g>
   <g stroke="null" id="svg_5">
    <path stroke="null" id="svg_6" fill="#ADBAC7" d="m374.453413,168.673482l-45.835575,0l-22.544648,-32.207808c-2.360654,-3.371484 -6.333223,-5.39707 -10.587568,-5.39707l-78.969022,0c-7.027207,0 -12.724277,5.425781 -12.724277,12.118358s5.69707,12.118358 12.724277,12.118358l72.158377,0l22.544648,32.207808c2.360654,3.371484 6.333223,5.396484 10.587568,5.396484l52.645604,0c7.498476,0 13.598525,5.80957 13.598525,12.950389l0,117.073812c0,6.693163 5.696455,12.118358 12.724277,12.118358c7.027822,0 12.724277,-5.425195 12.724892,-12.118358l0,-117.07264c0.000615,-20.50488 -17.515722,-37.18769 -39.047079,-37.18769z"/>
   </g>
   <g stroke="null" id="svg_7">
    <path stroke="null" id="svg_8" fill="#ADBAC7" d="m306.356813,287.112528c-5.799814,-3.779882 -13.717265,-2.366601 -17.686142,3.157031c-12.43081,17.30156 -37.325038,21.746481 -55.491678,9.90703c-18.167255,-11.83828 -22.833193,-35.545894 -10.402998,-52.84804c2.803623,-3.902929 6.303691,-7.236327 10.402998,-9.907616c5.799814,-3.779882 7.28376,-11.321483 3.314883,-16.844529c-3.968877,-5.523632 -11.888174,-6.936913 -17.686757,-3.157031c-6.711592,4.374023 -12.4425,9.83203 -17.033994,16.222849c-20.355029,28.331246 -12.713818,67.151944 17.033994,86.537683c11.264326,7.340624 24.102421,10.856834 36.819316,10.856834c20.866289,0 41.397274,-9.476366 54.045262,-27.079684c3.968877,-5.523046 2.484316,-13.064647 -3.314883,-16.844529z"/>
   </g>
  </g>
 </g>
</svg>