<svg width="20" height="20" viewBox="0 0 20 20" fill="none" xmlns="http://www.w3.org/2000/svg">
<path d="M4.40579 9.32236H15.5939C16.2705 9.32236 16.215 8.20758 16.1449 7.64954C16.1234 7.47738 16.0156 7.22382 15.916 7.08171L10.8097 0.587953C10.3624 -0.195984 9.63726 -0.195984 9.18978 0.587953L4.08413 7.08086C3.98444 7.22297 3.87673 7.47653 3.85517 7.64869C3.78487 8.20694 3.72914 9.32236 4.40579 9.32236Z" fill="#3663BE"/>
<path d="M4.08413 12.9189L9.18978 19.412C9.63705 20.1959 10.3622 20.1959 10.8097 19.412L15.916 12.918C16.0157 12.7759 16.1232 12.5226 16.1449 12.3502C16.215 11.7921 16.2705 10.6774 15.5939 10.6774H4.40579C3.72914 10.6774 3.78487 11.7928 3.85517 12.351C3.87694 12.5232 3.98444 12.7767 4.08413 12.9189Z" fill="#3663BE"/>
</svg>
