<svg width="21" height="21" viewBox="0 0 21 21" fill="none" xmlns="http://www.w3.org/2000/svg">
<path d="M18.9597 3.12349C18.2943 2.45812 17.5206 1.94085 16.6541 1.58938C15.8185 1.25117 14.9365 1.07654 14.0302 1.07654C13.1261 1.07654 12.2419 1.24675 11.4063 1.58275C10.542 1.93201 9.76611 2.44264 9.10074 3.10359L1.61589 10.573C1.08979 11.0946 0.683053 11.7025 0.404526 12.3834C0.137053 13.0399 0 13.734 0 14.448C0 15.1576 0.134842 15.8495 0.400105 16.506C0.674211 17.1846 1.07874 17.7925 1.60042 18.3164C2.12211 18.8403 2.73221 19.2448 3.41084 19.5211C4.06737 19.7886 4.76147 19.9235 5.47326 19.9235C6.18505 19.9235 6.87916 19.7886 7.53568 19.5234C8.21653 19.247 8.82661 18.8425 9.35053 18.3208L15.2991 12.3966C15.6815 12.0164 15.9755 11.5721 16.1766 11.0769C16.3712 10.5995 16.4684 10.0933 16.4684 9.57601C16.4684 8.51054 16.0528 7.5158 15.2991 6.76864C14.5475 6.01264 13.5483 5.59485 12.4851 5.59043C11.4196 5.58822 10.4182 6.00159 9.66442 6.75538L5.95958 10.4624C5.77168 10.6503 5.67 10.8979 5.67 11.161C5.67 11.424 5.77168 11.6738 5.95958 11.8595L5.97505 11.875C6.35968 12.2618 6.98747 12.2618 7.37432 11.8772L11.088 8.17456C11.8639 7.4053 13.1239 7.40088 13.8998 8.16574C14.2733 8.53711 14.4767 9.03448 14.4767 9.56719C14.4767 10.1043 14.2689 10.6084 13.8909 10.9842L7.94463 16.9084C7.93358 16.9194 7.92474 16.9282 7.91811 16.9415C7.26158 17.5803 6.39505 17.9296 5.47547 17.9252C4.54926 17.9208 3.68053 17.5605 3.03063 16.9084C2.70568 16.5768 2.45368 16.1899 2.27905 15.7589C2.11105 15.3411 2.02705 14.899 2.02705 14.448C2.02705 13.524 2.38295 12.6597 3.03063 12.0098C3.03947 12.0032 3.04611 11.9965 3.05495 11.9899L10.5243 4.52277C10.5309 4.51614 10.5376 4.5073 10.5442 4.49846C11.0172 4.03424 11.5677 3.67172 12.18 3.42635C12.7768 3.18761 13.4046 3.06824 14.0501 3.06824C14.6956 3.06824 15.3256 3.19203 15.9202 3.43077C16.5369 3.68056 17.0896 4.0453 17.5626 4.51614C18.0357 4.98919 18.4004 5.54182 18.6502 6.15856C18.8912 6.75319 19.0127 7.38319 19.0127 8.02867C19.0127 8.67635 18.8912 9.30856 18.648 9.90761C18.3982 10.5266 18.0291 11.0836 17.5538 11.5611L12.3922 16.7072C12.2043 16.8951 12.1004 17.1427 12.1004 17.4079C12.1004 17.6732 12.2043 17.9208 12.39 18.1065L12.4011 18.1175C12.7857 18.5021 13.4135 18.5021 13.7981 18.1175L18.9553 12.9736C19.6207 12.3082 20.1379 11.5323 20.4894 10.668C20.8298 9.83243 21 8.95043 21 8.04412C21 7.14001 20.8276 6.25801 20.4894 5.42464C20.1401 4.56033 19.6251 3.78664 18.9597 3.12349Z" fill="#EDEDED"/>
</svg>
